<?xml version="1.0" encoding="UTF-8" standalone="no"?>
<!DOCTYPE svg PUBLIC "-//W3C//DTD SVG 1.1//EN" "http://www.w3.org/Graphics/SVG/1.1/DTD/svg11.dtd">
<svg width="32px" height="32px" version="1.1" xmlns="http://www.w3.org/2000/svg" xmlns:xlink="http://www.w3.org/1999/xlink" xml:space="preserve" xmlns:serif="http://www.serif.com/" >
    <g id="gear">
        <circle cx="16" cy="16" r="7.429" />
        <path d="M19.381,5.38c1.547,0.493 2.948,1.315 4.121,2.384l2.363,-0.676l2.786,4.824l-1.764,1.706c0.168,0.768 0.256,1.565 0.256,2.382c-0,0.817 -0.088,1.614 -0.256,2.382l1.764,1.706l-2.786,4.824l-2.363,-0.676c-1.173,1.069 -2.574,1.891 -4.121,2.384l-0.595,2.38l-5.572,-0l-0.595,-2.38c-1.547,-0.493 -2.948,-1.315 -4.121,-2.384l-2.363,0.676l-2.786,-4.824l1.764,-1.706c-0.168,-0.768 -0.256,-1.565 -0.256,-2.382c0,-0.817 0.088,-1.614 0.256,-2.382l-1.764,-1.706l2.786,-4.824l2.363,0.676c1.173,-1.069 2.574,-1.891 4.121,-2.384l0.595,-2.38l5.572,0l0.595,2.38Z" />
    </g>
</svg>
